<svg width="360" height="24" viewBox="0 0 360 24" fill="none" xmlns="http://www.w3.org/2000/svg">
<path fill-rule="evenodd" clip-rule="evenodd" d="M0 0V24H360V0H0Z" fill="black" fill-opacity="0.2"/>
<mask id="mask0_1_813" style="mask-type:alpha" maskUnits="userSpaceOnUse" x="250" y="6" width="16" height="12">
<path fill-rule="evenodd" clip-rule="evenodd" d="M250 6L258 18L266 6H250Z" fill="white"/>
</mask>
<g mask="url(#mask0_1_813)">
<path fill-rule="evenodd" clip-rule="evenodd" d="M258 6C251.4 6 246 11.4 246 18C246 24.6 251.4 30 258 30C264.6 30 270 24.6 270 18C270 11.4 264.6 6 258 6ZM258 27C253 27 249 23 249 18C249 13 253 9 258 9C263 9 267 13 267 18C267 23 263 27 258 27Z" fill="white" fill-opacity="0.3"/>
<path fill-rule="evenodd" clip-rule="evenodd" d="M258 9C253 9 249 13 249 18C249 23 253 27 258 27C263 27 267 23 267 18C267 13 263 9 258 9ZM258 24C254.7 24 252 21.3 252 18C252 14.7 254.7 12 258 12C261.3 12 264 14.7 264 18C264 21.3 261.3 24 258 24Z" fill="white" fill-opacity="0.9"/>
<path fill-rule="evenodd" clip-rule="evenodd" d="M258 12C254.7 12 252 14.7 252 18C252 21.3 254.7 24 258 24C261.3 24 264 21.3 264 18C264 14.7 261.3 12 258 12ZM258 21C256.3 21 255 19.7 255 18C255 16.3 256.3 15 258 15C259.7 15 261 16.3 261 18C261 19.7 259.7 21 258 21Z" fill="white" fill-opacity="0.9"/>
<path fill-rule="evenodd" clip-rule="evenodd" d="M258 21C259.657 21 261 19.6569 261 18C261 16.3431 259.657 15 258 15C256.343 15 255 16.3431 255 18C255 19.6569 256.343 21 258 21Z" fill="white" fill-opacity="0.9"/>
</g>
<mask id="mask1_1_813" style="mask-type:alpha" maskUnits="userSpaceOnUse" x="276" y="6" width="12" height="12">
<path fill-rule="evenodd" clip-rule="evenodd" d="M288 18V6L276 18H288Z" fill="white"/>
</mask>
<g mask="url(#mask1_1_813)">
<path fill-rule="evenodd" clip-rule="evenodd" d="M285 6V18H288V6H285Z" fill="white" fill-opacity="0.3"/>
<path fill-rule="evenodd" clip-rule="evenodd" d="M282 6V18H285V6H282Z" fill="white" fill-opacity="0.3"/>
<path fill-rule="evenodd" clip-rule="evenodd" d="M279 6V18H282V6H279Z" fill="white" fill-opacity="0.9"/>
<path fill-rule="evenodd" clip-rule="evenodd" d="M276 6V18H279V6H276Z" fill="white" fill-opacity="0.9"/>
</g>
<mask id="mask2_1_813" style="mask-type:alpha" maskUnits="userSpaceOnUse" x="302" y="5" width="8" height="13">
<path fill-rule="evenodd" clip-rule="evenodd" d="M309 6H308V5H304V6H303C302.4 6 302 6.4 302 7V17C302 17.6 302.4 18 303 18H309C309.6 18 310 17.6 310 17V7C310 6.4 309.6 6 309 6Z" fill="white"/>
</mask>
<g mask="url(#mask2_1_813)">
<path fill-rule="evenodd" clip-rule="evenodd" d="M302 15V18H310V15H302Z" fill="white" fill-opacity="0.9"/>
<path fill-rule="evenodd" clip-rule="evenodd" d="M302 12V15H310V12H302Z" fill="white" fill-opacity="0.9"/>
<path fill-rule="evenodd" clip-rule="evenodd" d="M302 9V12H310V9H302Z" fill="white" fill-opacity="0.3"/>
<path fill-rule="evenodd" clip-rule="evenodd" d="M302 6V9H310V6H302Z" fill="white" fill-opacity="0.3"/>
<path fill-rule="evenodd" clip-rule="evenodd" d="M304 5V6H308V5H304Z" fill="white" fill-opacity="0.3"/>
</g>
<g opacity="0.9">
<path d="M323.627 7.70703V17H322.453V9.17334L320.085 10.0366V8.97656L323.443 7.70703H323.627ZM333.136 16.0352V17H327.087V16.1558L330.115 12.7852C330.487 12.3704 330.775 12.0192 330.978 11.7314C331.185 11.4395 331.329 11.1792 331.41 10.9507C331.494 10.7179 331.537 10.481 331.537 10.2397C331.537 9.93506 331.473 9.65999 331.346 9.41455C331.223 9.16488 331.042 8.96598 330.8 8.81787C330.559 8.66976 330.267 8.5957 329.924 8.5957C329.514 8.5957 329.171 8.67611 328.896 8.83691C328.625 8.99349 328.422 9.21354 328.287 9.49707C328.151 9.7806 328.083 10.1064 328.083 10.4746H326.909C326.909 9.9541 327.023 9.47803 327.252 9.04639C327.48 8.61475 327.819 8.27197 328.268 8.01807C328.716 7.75993 329.268 7.63086 329.924 7.63086C330.508 7.63086 331.008 7.73454 331.422 7.94189C331.837 8.14502 332.154 8.43278 332.375 8.80518C332.599 9.17334 332.711 9.60498 332.711 10.1001C332.711 10.3709 332.664 10.646 332.571 10.9253C332.482 11.2004 332.358 11.4754 332.197 11.7505C332.04 12.0256 331.856 12.2964 331.645 12.563C331.437 12.8296 331.215 13.092 330.978 13.3501L328.502 16.0352H333.136ZM334.469 16.3779C334.469 16.179 334.531 16.0119 334.653 15.8765C334.78 15.7368 334.962 15.667 335.199 15.667C335.436 15.667 335.616 15.7368 335.739 15.8765C335.866 16.0119 335.929 16.179 335.929 16.3779C335.929 16.5726 335.866 16.7376 335.739 16.873C335.616 17.0085 335.436 17.0762 335.199 17.0762C334.962 17.0762 334.78 17.0085 334.653 16.873C334.531 16.7376 334.469 16.5726 334.469 16.3779ZM334.476 10.7729C334.476 10.5741 334.537 10.4069 334.66 10.2715C334.787 10.1318 334.969 10.062 335.206 10.062C335.443 10.062 335.622 10.1318 335.745 10.2715C335.872 10.4069 335.936 10.5741 335.936 10.7729C335.936 10.9676 335.872 11.1326 335.745 11.2681C335.622 11.4035 335.443 11.4712 335.206 11.4712C334.969 11.4712 334.787 11.4035 334.66 11.2681C334.537 11.1326 334.476 10.9676 334.476 10.7729ZM339.255 11.8013H340.093C340.504 11.8013 340.842 11.7336 341.109 11.5981C341.38 11.4585 341.581 11.2702 341.712 11.0332C341.847 10.792 341.915 10.5212 341.915 10.2207C341.915 9.86523 341.856 9.56689 341.737 9.32568C341.619 9.08447 341.441 8.90251 341.204 8.77979C340.967 8.65706 340.667 8.5957 340.303 8.5957C339.973 8.5957 339.681 8.6613 339.427 8.79248C339.177 8.91943 338.98 9.1014 338.836 9.33838C338.697 9.57536 338.627 9.85465 338.627 10.1763H337.453C337.453 9.70654 337.571 9.27913 337.808 8.89404C338.045 8.50895 338.377 8.20215 338.805 7.97363C339.236 7.74512 339.736 7.63086 340.303 7.63086C340.861 7.63086 341.35 7.73031 341.769 7.9292C342.188 8.12386 342.514 8.41585 342.747 8.80518C342.979 9.19027 343.096 9.67057 343.096 10.2461C343.096 10.4788 343.041 10.7285 342.931 10.9951C342.825 11.2575 342.658 11.5029 342.429 11.7314C342.205 11.96 341.913 12.1483 341.553 12.2964C341.194 12.4403 340.762 12.5122 340.258 12.5122H339.255V11.8013ZM339.255 12.7661V12.0615H340.258C340.847 12.0615 341.333 12.1313 341.718 12.271C342.103 12.4106 342.406 12.5968 342.626 12.8296C342.85 13.0623 343.007 13.3184 343.096 13.5977C343.189 13.8727 343.235 14.1478 343.235 14.4229C343.235 14.8545 343.161 15.2375 343.013 15.5718C342.869 15.9061 342.664 16.1896 342.397 16.4224C342.135 16.6551 341.826 16.8307 341.471 16.9492C341.115 17.0677 340.728 17.127 340.309 17.127C339.907 17.127 339.528 17.0698 339.173 16.9556C338.822 16.8413 338.511 16.6763 338.24 16.4604C337.969 16.2404 337.757 15.9717 337.605 15.6543C337.453 15.3327 337.376 14.9666 337.376 14.5562H338.551C338.551 14.8778 338.621 15.1592 338.76 15.4004C338.904 15.6416 339.107 15.8299 339.37 15.9653C339.636 16.0965 339.949 16.1621 340.309 16.1621C340.669 16.1621 340.978 16.1007 341.236 15.978C341.498 15.8511 341.699 15.6606 341.839 15.4067C341.983 15.1528 342.055 14.8333 342.055 14.4482C342.055 14.0632 341.974 13.7479 341.813 13.5024C341.653 13.2528 341.424 13.0687 341.128 12.9502C340.836 12.8275 340.491 12.7661 340.093 12.7661H339.255ZM350.656 11.6426V13.0518C350.656 13.8092 350.588 14.4482 350.453 14.9688C350.317 15.4893 350.123 15.9082 349.869 16.2256C349.615 16.543 349.308 16.7736 348.948 16.9175C348.593 17.0571 348.191 17.127 347.742 17.127C347.387 17.127 347.059 17.0825 346.758 16.9937C346.458 16.9048 346.187 16.763 345.946 16.5684C345.709 16.3695 345.506 16.1113 345.336 15.7939C345.167 15.4766 345.038 15.0915 344.949 14.6387C344.86 14.1859 344.816 13.6569 344.816 13.0518V11.6426C344.816 10.8851 344.884 10.2503 345.019 9.73828C345.159 9.22624 345.355 8.81576 345.609 8.50684C345.863 8.19368 346.168 7.9694 346.523 7.83398C346.883 7.69857 347.285 7.63086 347.729 7.63086C348.089 7.63086 348.419 7.67529 348.72 7.76416C349.024 7.8488 349.295 7.98633 349.532 8.17676C349.769 8.36296 349.97 8.61263 350.135 8.92578C350.305 9.2347 350.434 9.61344 350.522 10.062C350.611 10.5106 350.656 11.0374 350.656 11.6426ZM349.475 13.2422V11.4458C349.475 11.0311 349.45 10.6672 349.399 10.354C349.352 10.0366 349.283 9.76579 349.189 9.5415C349.096 9.31722 348.978 9.13525 348.834 8.99561C348.694 8.85596 348.531 8.75439 348.345 8.69092C348.163 8.62321 347.958 8.58936 347.729 8.58936C347.45 8.58936 347.203 8.64225 346.987 8.74805C346.771 8.84961 346.589 9.01253 346.441 9.23682C346.297 9.4611 346.187 9.75521 346.111 10.1191C346.035 10.4831 345.997 10.9253 345.997 11.4458V13.2422C345.997 13.6569 346.02 14.0229 346.066 14.3403C346.117 14.6577 346.191 14.9328 346.289 15.1655C346.386 15.394 346.504 15.5824 346.644 15.7305C346.784 15.8786 346.944 15.9886 347.126 16.0605C347.313 16.1283 347.518 16.1621 347.742 16.1621C348.03 16.1621 348.282 16.1071 348.498 15.9971C348.713 15.887 348.893 15.7157 349.037 15.4829C349.185 15.2459 349.295 14.9434 349.367 14.5752C349.439 14.2028 349.475 13.7585 349.475 13.2422Z" fill="white"/>
</g>
</svg>
