<svg width="24" height="24" viewBox="0 0 24 24" fill="none" xmlns="http://www.w3.org/2000/svg">
<rect width="24" height="24" fill="#E5E5E5"/>
<rect width="360" height="640" transform="translate(-16 -506)" fill="white"/>
<rect x="-16" y="-506" width="360" height="640" fill="#252526"/>
<mask id="mask0_0_1" style="mask-type:alpha" maskUnits="userSpaceOnUse" x="3" y="3" width="18" height="18">
<path fill-rule="evenodd" clip-rule="evenodd" d="M19 3H5C3.9 3 3 3.9 3 5V19C3 20.1 3.9 21 5 21H19C20.1 21 21 20.1 21 19V5C21 3.9 20.1 3 19 3ZM10 17L5 12.1923L6.4 10.8462L10 14.3077L17.6 7L19 8.34615L10 17Z" fill="black"/>
</mask>
<g mask="url(#mask0_0_1)">
<rect width="18" height="18" transform="translate(3 3)" fill="white"/>
</g>
</svg>
