<svg width="25" height="18" viewBox="0 22 25 18" fill="none" xmlns="http://www.w3.org/2000/svg">
<path d="M17.3077 33.1731C17.3077 36.111 15.1183 38.4231 12.5 38.4231C9.88171 38.4231 7.69231 36.111 7.69231 33.1731C7.69231 30.2352 9.88171 27.9231 12.5 27.9231C15.1183 27.9231 17.3077 30.2352 17.3077 33.1731Z" stroke="white"/>
<path d="M0.533358 31.785C0.434177 32.0428 0.562696 32.3321 0.820413 32.4313C1.07813 32.5304 1.36745 32.4019 1.46663 32.1442L0.533358 31.785ZM1.46663 32.1442L1.60967 31.7725L0.676391 31.4134L0.533358 31.785L1.46663 32.1442ZM1.60967 31.7725C5.48643 21.6989 19.8682 22.0808 23.2048 32.346L24.1559 32.0369C20.528 20.876 4.89142 20.4608 0.676391 31.4134L1.60967 31.7725Z" fill="white"/>
</svg>
