<svg width="36" height="36" viewBox="0 0 36 36" fill="none" xmlns="http://www.w3.org/2000/svg">
<path d="M31.2355 13.365L30.673 5.38872C30.6641 5.27242 30.6192 5.16176 30.5447 5.07206C30.4701 4.98237 30.3695 4.91809 30.2568 4.8881L18.1405 1.68747C18.0481 1.66505 17.9517 1.66505 17.8593 1.68747L5.74301 4.8881C5.63028 4.91809 5.52967 4.98237 5.4551 5.07206C5.38052 5.16176 5.33567 5.27242 5.32676 5.38872L4.76426 13.365C4.62251 15.4443 4.81238 17.5328 5.32676 19.5525C6.36069 23.6732 8.74501 27.3289 12.0993 29.9362L17.6568 34.1944C17.7551 34.2701 17.8757 34.3111 17.9999 34.3111C18.124 34.3111 18.2447 34.2701 18.343 34.1944L23.9005 29.9362C27.2569 27.3335 29.645 23.6819 30.6843 19.5637C31.1961 17.5398 31.3822 15.4474 31.2355 13.365Z" fill="white"/>
<path d="M28.9912 13.5281L28.5412 7.15503C28.5323 7.03876 28.4874 6.92811 28.4128 6.83839C28.3383 6.74867 28.2376 6.68444 28.1249 6.6544L18.1405 4.03317C18.0489 4.00497 17.9509 4.00497 17.8593 4.03317L7.8749 6.6544C7.76218 6.68444 7.6616 6.74867 7.58701 6.83839C7.51243 6.92811 7.4676 7.03876 7.45865 7.15503L7.00865 13.5281C6.87804 15.3688 7.04325 17.2185 7.49803 19.0069C8.41355 22.6274 10.5145 25.8373 13.4662 28.125L17.6568 31.3369C17.7552 31.4126 17.8758 31.4537 17.9999 31.4537C18.124 31.4537 18.2447 31.4126 18.343 31.3369L22.5337 28.125C25.4853 25.8373 27.5863 22.6274 28.5018 19.0069C28.9566 17.2185 29.1218 15.3688 28.9912 13.5281Z" fill="#FFCC00"/>
<path d="M17.4359 18.204C17.4989 18.771 17.8769 19.128 18.4019 19.128C18.9269 19.128 19.3049 18.771 19.3679 18.204L20.2709 10.308C20.3339 9.699 19.9979 9.237 19.4309 9.237H17.3729C16.8059 9.237 16.4699 9.699 16.5329 10.308L17.4359 18.204ZM16.5749 22.299V22.341C16.5749 23.349 17.3519 24.126 18.4019 24.126C19.4519 24.126 20.2289 23.349 20.2289 22.341V22.299C20.2289 21.291 19.4519 20.514 18.4019 20.514C17.3519 20.514 16.5749 21.291 16.5749 22.299Z" fill="black"/>
</svg>
