<svg width="72" height="56" viewBox="0 0 72 56" fill="none" xmlns="http://www.w3.org/2000/svg">
<path d="M12.1523 38.4766C12.793 38.7773 13.2676 39.1133 13.5762 39.4844C13.8848 39.8516 14.0391 40.3086 14.0391 40.8555C14.0391 41.6289 13.793 42.209 13.3008 42.5957C12.8125 42.9824 12.0703 43.1758 11.0742 43.1758C10.1289 43.1758 9.30469 43.0234 8.60156 42.7188L8.75391 41.582C9.62109 41.9258 10.4258 42.0977 11.168 42.0977C11.7109 42.0977 12.1152 41.998 12.3809 41.7988C12.6504 41.5957 12.7852 41.2891 12.7852 40.8789C12.7852 40.3828 12.5312 40.0195 12.0234 39.7891L10.582 39.1328C9.99609 38.8672 9.55664 38.5508 9.26367 38.1836C8.9707 37.8164 8.82422 37.3711 8.82422 36.8477C8.82422 36.3672 8.92773 35.957 9.13477 35.6172C9.3418 35.2734 9.64258 35.0117 10.0371 34.832C10.4316 34.6523 10.9062 34.5625 11.4609 34.5625C11.9609 34.5625 12.3887 34.6406 12.7441 34.7969C13.1035 34.9531 13.375 35.1797 13.5586 35.4766C13.7461 35.7695 13.8398 36.125 13.8398 36.543H12.6914C12.6914 36.2539 12.584 36.0312 12.3691 35.875C12.1543 35.7188 11.8516 35.6406 11.4609 35.6406C11.0234 35.6406 10.6836 35.7422 10.4414 35.9453C10.1992 36.1445 10.0781 36.4258 10.0781 36.7891C10.0781 37.0508 10.1465 37.2676 10.2832 37.4395C10.4238 37.6074 10.6406 37.7617 10.9336 37.9023L12.1523 38.4766ZM21.1406 39.6484C21.1406 39.9336 21.1289 40.1992 21.1055 40.4453H16.9102C17.0195 40.9609 17.2656 41.3535 17.6484 41.623C18.0312 41.8926 18.5352 42.0273 19.1602 42.0273C19.6406 42.0273 20.1484 41.9727 20.6836 41.8633L20.8359 42.9531C20.2617 43.0625 19.6562 43.1172 19.0195 43.1172C18.3125 43.1172 17.7109 42.9922 17.2148 42.7422C16.7227 42.4922 16.3477 42.127 16.0898 41.6465C15.832 41.1621 15.7031 40.5742 15.7031 39.8828C15.7031 39.2109 15.8125 38.6348 16.0312 38.1543C16.25 37.6738 16.5684 37.3066 16.9863 37.0527C17.4082 36.7988 17.9141 36.6719 18.5039 36.6719C19.3477 36.6719 19.998 36.9277 20.4551 37.4395C20.9121 37.9512 21.1406 38.6875 21.1406 39.6484ZM20.0156 39.4961C20.0156 38.9414 19.8828 38.5137 19.6172 38.2129C19.3555 37.9121 18.9883 37.7617 18.5156 37.7617C18.0352 37.7617 17.6523 37.9121 17.3672 38.2129C17.082 38.5137 16.9141 38.9414 16.8633 39.4961H20.0156ZM28.1484 42.9766C27.5977 43.0703 27.0547 43.1172 26.5195 43.1172C25.8867 43.1172 25.375 43.0312 24.9844 42.8594C24.5938 42.6875 24.3066 42.4219 24.123 42.0625C23.9395 41.7031 23.8477 41.2344 23.8477 40.6562V37.8203H22.2891V36.7891H23.8477V34.9141H25.0898V36.7891H27.9141V37.8203H25.0898V40.5977C25.0898 41.0938 25.2109 41.4531 25.4531 41.6758C25.6953 41.8945 26.0898 42.0039 26.6367 42.0039C26.8164 42.0039 27.0078 41.9941 27.2109 41.9746C27.418 41.9551 27.6836 41.9258 28.0078 41.8867L28.1484 42.9766ZM35.1797 42.9766C34.6289 43.0703 34.0859 43.1172 33.5508 43.1172C32.918 43.1172 32.4062 43.0312 32.0156 42.8594C31.625 42.6875 31.3379 42.4219 31.1543 42.0625C30.9707 41.7031 30.8789 41.2344 30.8789 40.6562V37.8203H29.3203V36.7891H30.8789V34.9141H32.1211V36.7891H34.9453V37.8203H32.1211V40.5977C32.1211 41.0938 32.2422 41.4531 32.4844 41.6758C32.7266 41.8945 33.1211 42.0039 33.668 42.0039C33.8477 42.0039 34.0391 41.9941 34.2422 41.9746C34.4492 41.9551 34.7148 41.9258 35.0391 41.8867L35.1797 42.9766ZM39.8555 35.8047C39.6992 35.8047 39.5547 35.7656 39.4219 35.6875C39.2891 35.6094 39.1836 35.5039 39.1055 35.3711C39.0273 35.2383 38.9883 35.0938 38.9883 34.9375C38.9883 34.7812 39.0273 34.6367 39.1055 34.5039C39.1836 34.3711 39.2891 34.2656 39.4219 34.1875C39.5547 34.1094 39.6992 34.0703 39.8555 34.0703C40.0117 34.0703 40.1562 34.1094 40.2891 34.1875C40.4219 34.2656 40.5273 34.3711 40.6055 34.5039C40.6836 34.6367 40.7227 34.7812 40.7227 34.9375C40.7227 35.0938 40.6836 35.2383 40.6055 35.3711C40.5273 35.5039 40.4219 35.6094 40.2891 35.6875C40.1562 35.7656 40.0117 35.8047 39.8555 35.8047ZM40.5469 41.9805H42.457V43H36.9375V41.9805H39.3047V37.8203H37.2891V36.7891H40.5469V41.9805ZM47.0156 36.6719C47.6719 36.6719 48.1797 36.8711 48.5391 37.2695C48.8984 37.668 49.0781 38.2305 49.0781 38.957V43H47.8359V38.957C47.8359 38.5664 47.7383 38.2637 47.543 38.0488C47.3477 37.834 47.0742 37.7266 46.7227 37.7266C45.7461 37.7266 45.2578 38.3203 45.2578 39.5078V43H44.0156V36.7891H45.1406L45.2402 37.9141H45.375C45.4102 37.4961 45.5625 37.1855 45.832 36.9824C46.1016 36.7754 46.4961 36.6719 47.0156 36.6719ZM56.1094 36.7891V42.4492C56.1094 43.1914 55.998 43.7988 55.7754 44.2715C55.5566 44.7441 55.2148 45.0996 54.75 45.3379C54.2852 45.5801 53.6836 45.7148 52.9453 45.7422L51.1289 45.8008L51.0703 44.6992L53.0625 44.6055C53.6836 44.5781 54.1367 44.4043 54.4219 44.084C54.7109 43.7637 54.8555 43.2812 54.8555 42.6367V42.0391H54.75C54.7109 42.3906 54.5449 42.6582 54.252 42.8418C53.959 43.0254 53.5742 43.1172 53.0977 43.1172C52.5742 43.1172 52.127 42.9961 51.7559 42.7539C51.3887 42.5078 51.1074 42.1484 50.9121 41.6758C50.7207 41.2031 50.625 40.6289 50.625 39.9531C50.625 39.2617 50.7207 38.6699 50.9121 38.1777C51.1074 37.6855 51.3906 37.3125 51.7617 37.0586C52.1367 36.8008 52.5859 36.6719 53.1094 36.6719C53.6055 36.6719 53.9883 36.7754 54.2578 36.9824C54.5312 37.1855 54.6953 37.4961 54.75 37.9141H54.8848L54.9844 36.7891H56.1094ZM53.2969 42.0625C54.3438 42.0625 54.8672 41.7109 54.8672 41.0078V39.5078C54.8672 38.3203 54.3398 37.7266 53.2852 37.7266C52.8281 37.7266 52.4746 37.9199 52.2246 38.3066C51.9785 38.6934 51.8555 39.2422 51.8555 39.9531C51.8555 40.6484 51.9766 41.1738 52.2188 41.5293C52.4609 41.8848 52.8203 42.0625 53.2969 42.0625ZM60.1289 43.1172C59.6523 43.1172 59.2461 43.1035 58.9102 43.0762C58.5781 43.0488 58.2773 43.0039 58.0078 42.9414L58.1484 41.8164C58.9453 41.9414 59.6055 42.0039 60.1289 42.0039C60.7539 42.0039 61.209 41.9434 61.4941 41.8223C61.7793 41.6973 61.9219 41.5 61.9219 41.2305C61.9219 41.0508 61.873 40.9141 61.7754 40.8203C61.6816 40.7266 61.5273 40.6523 61.3125 40.5977L59.8828 40.2344C59.4844 40.1328 59.166 40.0156 58.9277 39.8828C58.6895 39.75 58.5117 39.582 58.3945 39.3789C58.2773 39.1719 58.2188 38.9141 58.2188 38.6055C58.2188 38.1484 58.3281 37.7793 58.5469 37.498C58.7695 37.2129 59.1133 37.0039 59.5781 36.8711C60.0469 36.7383 60.6562 36.6719 61.4062 36.6719C61.9766 36.6719 62.5234 36.7109 63.0469 36.7891L62.918 37.8672C62.3281 37.8125 61.8125 37.7852 61.3711 37.7852C60.7148 37.7852 60.2402 37.8457 59.9473 37.9668C59.6543 38.084 59.5078 38.2773 59.5078 38.5469C59.5078 38.7188 59.5586 38.8477 59.6602 38.9336C59.7617 39.0195 59.9336 39.0938 60.1758 39.1562L61.3242 39.4375C61.7695 39.5469 62.1289 39.6758 62.4023 39.8242C62.6758 39.9727 62.8789 40.1582 63.0117 40.3809C63.1445 40.6035 63.2109 40.8789 63.2109 41.207C63.2109 41.6562 63.1035 42.0215 62.8887 42.3027C62.6738 42.5801 62.3398 42.7852 61.8867 42.918C61.4375 43.0508 60.8516 43.1172 60.1289 43.1172Z" fill="white"/>
<path d="M45.4849 16.499L45.8499 15.519L44.8079 13.004L43.8569 12.57L42.7559 12.937L42.4809 12.851C42.1229 12.411 41.7179 12.007 41.2749 11.647L41.1889 11.37L41.5559 10.268L41.1219 9.31702L38.6069 8.27502L37.6279 8.64102L37.1079 9.68002L36.8519 9.81402C36.2839 9.75502 35.7119 9.75402 35.1479 9.81202L34.8919 9.67902L34.3729 8.64202L33.3939 8.27502L30.8779 9.31702L30.4439 10.268L30.8109 11.368L30.7239 11.644C30.2839 12.002 29.8789 12.407 29.5199 12.85L29.2439 12.936L28.1429 12.569L27.1919 13.003L26.1499 15.519L26.5149 16.499L27.5539 17.019L27.6879 17.275C27.6289 17.842 27.6289 18.414 27.6859 18.979L27.5529 19.235L26.5159 19.754L26.1509 20.734L27.1929 23.249L28.1439 23.683L29.2439 23.317L29.5189 23.403C29.8769 23.843 30.2819 24.247 30.7249 24.607L30.8109 24.882L30.4439 25.984L30.8789 26.935L33.3939 27.977L34.3739 27.611L34.8929 26.573L35.1489 26.439C35.7169 26.498 36.2889 26.498 36.8539 26.44L37.1089 26.574L37.6279 27.611L38.6069 27.976L41.1219 26.934L41.5559 25.983L41.1899 24.883L41.2759 24.608C41.7169 24.249 42.1209 23.844 42.4799 23.402L42.7549 23.316L43.8569 23.683L44.8079 23.249L45.8499 20.733L45.4849 19.753L44.4459 19.233L44.3119 18.978C44.3709 18.411 44.3709 17.839 44.3139 17.273L44.4469 17.017L45.4849 16.499ZM43.7659 16.324L43.3629 17.096L43.3799 17.238C43.4499 17.824 43.4499 18.42 43.3779 19.009L43.3609 19.152L43.7649 19.925L44.7449 20.415L44.8559 20.713L44.0919 22.556L43.8029 22.688L42.7629 22.342L41.9309 22.603L41.8419 22.716C41.4769 23.183 41.0549 23.605 40.5909 23.97L40.4779 24.058L40.2169 24.89L40.5629 25.929L40.4309 26.218L38.5879 26.982L38.2899 26.871L37.7999 25.892L37.0279 25.488L36.8859 25.505C36.3009 25.575 35.7049 25.575 35.1139 25.503L34.9719 25.486L34.1989 25.89L33.7089 26.871L33.4109 26.982L31.5679 26.219L31.4359 25.93L31.7819 24.89L31.5209 24.058L31.4079 23.969C30.9399 23.602 30.5179 23.181 30.1539 22.717L30.0659 22.604L29.2349 22.343L28.1959 22.69L27.9069 22.558L27.1429 20.715L27.2539 20.417L28.0999 19.993L28.2509 19.892L28.6369 19.154L28.6199 19.012C28.5499 18.426 28.5499 17.83 28.6219 17.241L28.6389 17.098L28.2349 16.325L27.2549 15.835L27.1429 15.537L27.9069 13.694L28.1959 13.562L29.2359 13.908L30.0679 13.647L30.1569 13.534C30.5229 13.066 30.9439 12.645 31.4079 12.28L31.5209 12.191L31.7809 11.359L31.4359 10.322L31.5679 10.033L33.4109 9.26902L33.7089 9.38002L34.1989 10.359L34.9709 10.763L35.1129 10.746C35.6989 10.676 36.2949 10.676 36.8839 10.748L37.0269 10.765L37.7999 10.36L38.2909 9.37902L38.5889 9.26802L40.4319 10.032L40.5639 10.321L40.2179 11.361L40.4779 12.193L40.5909 12.282C41.0579 12.648 41.4799 13.069 41.8449 13.534L41.9329 13.647L42.7649 13.908L43.8039 13.562L44.0929 13.694L44.8569 15.537L44.7459 15.835L43.7659 16.324Z" fill="white"/>
<path d="M35.9939 12.998C33.1899 12.998 30.9089 15.275 30.9089 18.075C30.9089 20.875 33.1899 23.152 35.9939 23.152C38.7979 23.152 41.0789 20.875 41.0789 18.075C41.0789 15.275 38.7979 12.998 35.9939 12.998ZM35.9939 22.228C33.6999 22.228 31.8339 20.365 31.8339 18.075C31.8339 15.785 33.6999 13.922 35.9939 13.922C38.2879 13.922 40.1539 15.785 40.1539 18.075C40.1539 20.365 38.2879 22.228 35.9939 22.228Z" fill="white"/>
</svg>
