<svg width="72" height="56" viewBox="0 0 72 56" fill="none" xmlns="http://www.w3.org/2000/svg">
<path d="M9.98438 35.793V38.2773H13.2656V39.3906H9.98438V41.8867H14.3203V43H8.8125V34.6797H14.3203V35.793H9.98438ZM21.3164 36.7891L19.0664 39.8828L21.3164 43H19.9102L18.3926 40.8438L16.9336 43H15.5273L17.748 39.9297L15.5273 36.7891H16.9336L18.4219 38.9629L19.9102 36.7891H21.3164ZM25.9219 36.6719C26.4453 36.6719 26.8926 36.8008 27.2637 37.0586C27.6387 37.3125 27.9219 37.6855 28.1133 38.1777C28.3086 38.6699 28.4062 39.2617 28.4062 39.9531C28.4062 40.6289 28.3086 41.2031 28.1133 41.6758C27.9219 42.1484 27.6406 42.5078 27.2695 42.7539C26.9023 42.9961 26.457 43.1172 25.9336 43.1172C25.457 43.1172 25.0723 43.0254 24.7793 42.8418C24.4863 42.6582 24.3203 42.3906 24.2812 42.0391H24.1641V45.6953H22.9219V36.7891H24.0469L24.1465 37.9141H24.2812C24.3359 37.4961 24.498 37.1855 24.7676 36.9824C25.041 36.7754 25.4258 36.6719 25.9219 36.6719ZM25.7344 42.0625C26.2109 42.0625 26.5703 41.8848 26.8125 41.5293C27.0547 41.1738 27.1758 40.6484 27.1758 39.9531C27.1758 39.2422 27.0508 38.6934 26.8008 38.3066C26.5547 37.9199 26.2031 37.7266 25.7461 37.7266C24.6914 37.7266 24.1641 38.3203 24.1641 39.5078V41.0078C24.1641 41.7109 24.6875 42.0625 25.7344 42.0625ZM35.2031 42.8711C34.8906 42.957 34.5879 43.0195 34.2949 43.0586C34.002 43.0977 33.6875 43.1172 33.3516 43.1172C32.8672 43.1172 32.4766 43.0312 32.1797 42.8594C31.8828 42.6875 31.6641 42.4219 31.5234 42.0625C31.3828 41.7031 31.3125 41.2344 31.3125 40.6562V35.2422H29.4844V34.2109H32.5547V40.5977C32.5547 40.9492 32.5859 41.2246 32.6484 41.4238C32.7148 41.6191 32.8379 41.7656 33.0176 41.8633C33.2012 41.957 33.4688 42.0039 33.8203 42.0039C33.9922 42.0039 34.1758 41.9863 34.3711 41.9512C34.5703 41.916 34.8008 41.8594 35.0625 41.7812L35.2031 42.8711ZM39.5156 43.1172C38.9453 43.1172 38.4551 42.9922 38.0449 42.7422C37.6387 42.4883 37.3281 42.1211 37.1133 41.6406C36.9023 41.1562 36.7969 40.5742 36.7969 39.8945C36.7969 39.2148 36.9023 38.6348 37.1133 38.1543C37.3281 37.6699 37.6387 37.3027 38.0449 37.0527C38.4551 36.7988 38.9453 36.6719 39.5156 36.6719C40.0859 36.6719 40.5742 36.7988 40.9805 37.0527C41.3906 37.3027 41.7012 37.6699 41.9121 38.1543C42.127 38.6348 42.2344 39.2148 42.2344 39.8945C42.2344 40.5742 42.127 41.1562 41.9121 41.6406C41.7012 42.1211 41.3906 42.4883 40.9805 42.7422C40.5742 42.9922 40.0859 43.1172 39.5156 43.1172ZM39.5156 42.0039C39.9727 42.0039 40.3242 41.8223 40.5703 41.459C40.8203 41.0918 40.9453 40.5703 40.9453 39.8945C40.9453 39.2188 40.8203 38.6992 40.5703 38.3359C40.3242 37.9688 39.9727 37.7852 39.5156 37.7852C39.0586 37.7852 38.7051 37.9688 38.4551 38.3359C38.209 38.6992 38.0859 39.2188 38.0859 39.8945C38.0859 40.5703 38.209 41.0918 38.4551 41.459C38.7051 41.8223 39.0586 42.0039 39.5156 42.0039ZM47.9531 36.6719C48.3828 36.6719 48.7305 36.7539 48.9961 36.918C49.2656 37.0781 49.4629 37.3281 49.5879 37.668C49.7168 38.0078 49.7812 38.4531 49.7812 39.0039H48.5508C48.5508 38.5547 48.4824 38.2305 48.3457 38.0312C48.2129 37.8281 47.9961 37.7266 47.6953 37.7266C47.1758 37.7266 46.7832 37.9492 46.5176 38.3945C46.2559 38.8398 46.125 39.4844 46.125 40.3281V41.9688H47.6484V43H43.5V41.9688H44.8828V37.8203H43.7344V36.7891H45.8906L46.1016 38.3828H46.2422C46.2773 37.8086 46.4355 37.3809 46.7168 37.0996C47.002 36.8145 47.4141 36.6719 47.9531 36.6719ZM56.2969 39.6484C56.2969 39.9336 56.2852 40.1992 56.2617 40.4453H52.0664C52.1758 40.9609 52.4219 41.3535 52.8047 41.623C53.1875 41.8926 53.6914 42.0273 54.3164 42.0273C54.7969 42.0273 55.3047 41.9727 55.8398 41.8633L55.9922 42.9531C55.418 43.0625 54.8125 43.1172 54.1758 43.1172C53.4688 43.1172 52.8672 42.9922 52.3711 42.7422C51.8789 42.4922 51.5039 42.127 51.2461 41.6465C50.9883 41.1621 50.8594 40.5742 50.8594 39.8828C50.8594 39.2109 50.9688 38.6348 51.1875 38.1543C51.4062 37.6738 51.7246 37.3066 52.1426 37.0527C52.5645 36.7988 53.0703 36.6719 53.6602 36.6719C54.5039 36.6719 55.1543 36.9277 55.6113 37.4395C56.0684 37.9512 56.2969 38.6875 56.2969 39.6484ZM55.1719 39.4961C55.1719 38.9414 55.0391 38.5137 54.7734 38.2129C54.5117 37.9121 54.1445 37.7617 53.6719 37.7617C53.1914 37.7617 52.8086 37.9121 52.5234 38.2129C52.2383 38.5137 52.0703 38.9414 52.0195 39.4961H55.1719ZM62.0156 36.6719C62.4453 36.6719 62.793 36.7539 63.0586 36.918C63.3281 37.0781 63.5254 37.3281 63.6504 37.668C63.7793 38.0078 63.8438 38.4531 63.8438 39.0039H62.6133C62.6133 38.5547 62.5449 38.2305 62.4082 38.0312C62.2754 37.8281 62.0586 37.7266 61.7578 37.7266C61.2383 37.7266 60.8457 37.9492 60.5801 38.3945C60.3184 38.8398 60.1875 39.4844 60.1875 40.3281V41.9688H61.7109V43H57.5625V41.9688H58.9453V37.8203H57.7969V36.7891H59.9531L60.1641 38.3828H60.3047C60.3398 37.8086 60.498 37.3809 60.7793 37.0996C61.0645 36.8145 61.4766 36.6719 62.0156 36.6719Z" fill="white"/>
<path d="M35 25C39.4183 25 43 21.4183 43 17C43 12.5817 39.4183 9 35 9C30.5817 9 27 12.5817 27 17C27 21.4183 30.5817 25 35 25Z" stroke="white" stroke-width="2" stroke-linecap="round" stroke-linejoin="round"/>
<path d="M45 27L40.65 22.65" stroke="white" stroke-width="2" stroke-linecap="round" stroke-linejoin="round"/>
</svg>
