<svg width="72" height="56" viewBox="0 0 72 56" fill="none" xmlns="http://www.w3.org/2000/svg">
<path d="M16.6641 43L15.1582 39.8359H15.0703H13.3711V43H12.1992V34.6797H15.0703C15.6406 34.6797 16.1289 34.7793 16.5352 34.9785C16.9414 35.1738 17.25 35.4609 17.4609 35.8398C17.6719 36.2148 17.7773 36.668 17.7773 37.1992C17.7773 37.793 17.6562 38.2949 17.4141 38.7051C17.1719 39.1152 16.8223 39.416 16.3652 39.6074L18.082 43H16.6641ZM13.3711 38.7227H15.0703C15.5352 38.7227 15.8965 38.5996 16.1543 38.3535C16.416 38.1074 16.5469 37.7617 16.5469 37.3164C16.5469 36.832 16.418 36.457 16.1602 36.1914C15.9023 35.9258 15.5391 35.793 15.0703 35.793H13.3711V38.7227ZM24.6562 39.6484C24.6562 39.9336 24.6445 40.1992 24.6211 40.4453H20.4258C20.5352 40.9609 20.7812 41.3535 21.1641 41.623C21.5469 41.8926 22.0508 42.0273 22.6758 42.0273C23.1562 42.0273 23.6641 41.9727 24.1992 41.8633L24.3516 42.9531C23.7773 43.0625 23.1719 43.1172 22.5352 43.1172C21.8281 43.1172 21.2266 42.9922 20.7305 42.7422C20.2383 42.4922 19.8633 42.127 19.6055 41.6465C19.3477 41.1621 19.2188 40.5742 19.2188 39.8828C19.2188 39.2109 19.3281 38.6348 19.5469 38.1543C19.7656 37.6738 20.084 37.3066 20.502 37.0527C20.9238 36.7988 21.4297 36.6719 22.0195 36.6719C22.8633 36.6719 23.5137 36.9277 23.9707 37.4395C24.4277 37.9512 24.6562 38.6875 24.6562 39.6484ZM23.5312 39.4961C23.5312 38.9414 23.3984 38.5137 23.1328 38.2129C22.8711 37.9121 22.5039 37.7617 22.0312 37.7617C21.5508 37.7617 21.168 37.9121 20.8828 38.2129C20.5977 38.5137 20.4297 38.9414 20.3789 39.4961H23.5312ZM29.4492 43.1172C28.7695 43.1172 28.1914 42.9922 27.7148 42.7422C27.2383 42.4922 26.875 42.127 26.625 41.6465C26.375 41.1621 26.25 40.5742 26.25 39.8828C26.25 39.207 26.3652 38.6289 26.5957 38.1484C26.8262 37.668 27.1641 37.3027 27.6094 37.0527C28.0547 36.7988 28.5938 36.6719 29.2266 36.6719C29.5625 36.6719 29.9023 36.7109 30.2461 36.7891C30.5938 36.8672 30.9199 37.0703 31.2246 37.3984C31.5332 37.7227 31.6875 38.2188 31.6875 38.8867H30.4102C30.4102 38.5391 30.3066 38.2695 30.0996 38.0781C29.8926 37.8828 29.6055 37.7852 29.2383 37.7852C28.6992 37.7852 28.2812 37.9629 27.9844 38.3184C27.6875 38.6738 27.5391 39.1758 27.5391 39.8242C27.5391 40.5312 27.7148 41.0723 28.0664 41.4473C28.4219 41.8184 28.9297 42.0039 29.5898 42.0039C30.1758 42.0039 30.7852 41.9531 31.418 41.8516L31.5586 42.9414C30.9922 43.0586 30.2891 43.1172 29.4492 43.1172ZM38.7188 39.6484C38.7188 39.9336 38.707 40.1992 38.6836 40.4453H34.4883C34.5977 40.9609 34.8438 41.3535 35.2266 41.623C35.6094 41.8926 36.1133 42.0273 36.7383 42.0273C37.2188 42.0273 37.7266 41.9727 38.2617 41.8633L38.4141 42.9531C37.8398 43.0625 37.2344 43.1172 36.5977 43.1172C35.8906 43.1172 35.2891 42.9922 34.793 42.7422C34.3008 42.4922 33.9258 42.127 33.668 41.6465C33.4102 41.1621 33.2812 40.5742 33.2812 39.8828C33.2812 39.2109 33.3906 38.6348 33.6094 38.1543C33.8281 37.6738 34.1465 37.3066 34.5645 37.0527C34.9863 36.7988 35.4922 36.6719 36.082 36.6719C36.9258 36.6719 37.5762 36.9277 38.0332 37.4395C38.4902 37.9512 38.7188 38.6875 38.7188 39.6484ZM37.5938 39.4961C37.5938 38.9414 37.4609 38.5137 37.1953 38.2129C36.9336 37.9121 36.5664 37.7617 36.0938 37.7617C35.6133 37.7617 35.2305 37.9121 34.9453 38.2129C34.6602 38.5137 34.4922 38.9414 34.4414 39.4961H37.5938ZM43.3711 35.8047C43.2148 35.8047 43.0703 35.7656 42.9375 35.6875C42.8047 35.6094 42.6992 35.5039 42.6211 35.3711C42.543 35.2383 42.5039 35.0938 42.5039 34.9375C42.5039 34.7812 42.543 34.6367 42.6211 34.5039C42.6992 34.3711 42.8047 34.2656 42.9375 34.1875C43.0703 34.1094 43.2148 34.0703 43.3711 34.0703C43.5273 34.0703 43.6719 34.1094 43.8047 34.1875C43.9375 34.2656 44.043 34.3711 44.1211 34.5039C44.1992 34.6367 44.2383 34.7812 44.2383 34.9375C44.2383 35.0938 44.1992 35.2383 44.1211 35.3711C44.043 35.5039 43.9375 35.6094 43.8047 35.6875C43.6719 35.7656 43.5273 35.8047 43.3711 35.8047ZM44.0625 41.9805H45.9727V43H40.4531V41.9805H42.8203V37.8203H40.8047V36.7891H44.0625V41.9805ZM47.0156 36.7891H48.3398L50.0391 42.0625H50.1445L51.7852 36.7891H53.1094L50.918 43.1172H49.2656L47.0156 36.7891ZM59.8125 39.6484C59.8125 39.9336 59.8008 40.1992 59.7773 40.4453H55.582C55.6914 40.9609 55.9375 41.3535 56.3203 41.623C56.7031 41.8926 57.207 42.0273 57.832 42.0273C58.3125 42.0273 58.8203 41.9727 59.3555 41.8633L59.5078 42.9531C58.9336 43.0625 58.3281 43.1172 57.6914 43.1172C56.9844 43.1172 56.3828 42.9922 55.8867 42.7422C55.3945 42.4922 55.0195 42.127 54.7617 41.6465C54.5039 41.1621 54.375 40.5742 54.375 39.8828C54.375 39.2109 54.4844 38.6348 54.7031 38.1543C54.9219 37.6738 55.2402 37.3066 55.6582 37.0527C56.0801 36.7988 56.5859 36.6719 57.1758 36.6719C58.0195 36.6719 58.6699 36.9277 59.127 37.4395C59.584 37.9512 59.8125 38.6875 59.8125 39.6484ZM58.6875 39.4961C58.6875 38.9414 58.5547 38.5137 58.2891 38.2129C58.0273 37.9121 57.6602 37.7617 57.1875 37.7617C56.707 37.7617 56.3242 37.9121 56.0391 38.2129C55.7539 38.5137 55.5859 38.9414 55.5352 39.4961H58.6875Z" fill="white"/>
<path d="M45 17.779C45 22.7297 40.8394 26.8 35.6355 26.8C30.4316 26.8 26.271 22.7297 26.271 17.779C26.271 12.8283 30.4316 8.75793 35.6355 8.75793C40.8394 8.75793 45 12.8283 45 17.779Z" stroke="white" stroke-width="2"/>
<g clip-path="url(#clip0_1_625)">
<path d="M35.6517 10.7964L33.578 13.236L26.7657 7.82288L23.6547 11.4828L30.467 16.8959L28.393 19.3359L38.8348 20.4792L35.6517 10.7964Z" fill="white"/>
</g>
<defs>
<clipPath id="clip0_1_625">
<rect width="12.8092" height="19.8883" fill="white" transform="matrix(-0.647659 0.761931 -0.782919 -0.622123 43.9557 16.3729)"/>
</clipPath>
</defs>
</svg>
