<svg width="72" height="56" viewBox="0 0 72 56" fill="none" xmlns="http://www.w3.org/2000/svg">
<path d="M12.3164 43.1172C9.73047 43.1172 8.4375 41.6875 8.4375 38.8281C8.4375 37.9297 8.57812 37.1621 8.85938 36.5254C9.14453 35.8848 9.55664 35.3984 10.0957 35.0664C10.6387 34.7305 11.293 34.5625 12.0586 34.5625C12.625 34.5625 13.1621 34.6895 13.6699 34.9434C14.1816 35.1934 14.4375 35.7266 14.4375 36.543H13.2891C13.2891 35.9336 12.8828 35.6289 12.0703 35.6289C11.5898 35.6289 11.1699 35.752 10.8105 35.998C10.4551 36.2441 10.1797 36.6035 9.98438 37.0762C9.78906 37.5449 9.69141 38.1094 9.69141 38.7695C9.69141 39.8594 9.92773 40.6777 10.4004 41.2246C10.873 41.7676 11.5781 42.0391 12.5156 42.0391C13.082 42.0391 13.6406 41.9219 14.1914 41.6875L14.4609 42.7188C13.7812 42.9844 13.0664 43.1172 12.3164 43.1172ZM18.4219 43.1172C17.8516 43.1172 17.3613 42.9922 16.9512 42.7422C16.5449 42.4883 16.2344 42.1211 16.0195 41.6406C15.8086 41.1562 15.7031 40.5742 15.7031 39.8945C15.7031 39.2148 15.8086 38.6348 16.0195 38.1543C16.2344 37.6699 16.5449 37.3027 16.9512 37.0527C17.3613 36.7988 17.8516 36.6719 18.4219 36.6719C18.9922 36.6719 19.4805 36.7988 19.8867 37.0527C20.2969 37.3027 20.6074 37.6699 20.8184 38.1543C21.0332 38.6348 21.1406 39.2148 21.1406 39.8945C21.1406 40.5742 21.0332 41.1562 20.8184 41.6406C20.6074 42.1211 20.2969 42.4883 19.8867 42.7422C19.4805 42.9922 18.9922 43.1172 18.4219 43.1172ZM18.4219 42.0039C18.8789 42.0039 19.2305 41.8223 19.4766 41.459C19.7266 41.0918 19.8516 40.5703 19.8516 39.8945C19.8516 39.2188 19.7266 38.6992 19.4766 38.3359C19.2305 37.9688 18.8789 37.7852 18.4219 37.7852C17.9648 37.7852 17.6113 37.9688 17.3613 38.3359C17.1152 38.6992 16.9922 39.2188 16.9922 39.8945C16.9922 40.5703 17.1152 41.0918 17.3613 41.459C17.6113 41.8223 17.9648 42.0039 18.4219 42.0039ZM25.793 35.8047C25.6367 35.8047 25.4922 35.7656 25.3594 35.6875C25.2266 35.6094 25.1211 35.5039 25.043 35.3711C24.9648 35.2383 24.9258 35.0938 24.9258 34.9375C24.9258 34.7812 24.9648 34.6367 25.043 34.5039C25.1211 34.3711 25.2266 34.2656 25.3594 34.1875C25.4922 34.1094 25.6367 34.0703 25.793 34.0703C25.9492 34.0703 26.0938 34.1094 26.2266 34.1875C26.3594 34.2656 26.4648 34.3711 26.543 34.5039C26.6211 34.6367 26.6602 34.7812 26.6602 34.9375C26.6602 35.0938 26.6211 35.2383 26.543 35.3711C26.4648 35.5039 26.3594 35.6094 26.2266 35.6875C26.0938 35.7656 25.9492 35.8047 25.793 35.8047ZM26.4844 41.9805H28.3945V43H22.875V41.9805H25.2422V37.8203H23.2266V36.7891H26.4844V41.9805ZM32.9531 36.6719C33.6094 36.6719 34.1172 36.8711 34.4766 37.2695C34.8359 37.668 35.0156 38.2305 35.0156 38.957V43H33.7734V38.957C33.7734 38.5664 33.6758 38.2637 33.4805 38.0488C33.2852 37.834 33.0117 37.7266 32.6602 37.7266C31.6836 37.7266 31.1953 38.3203 31.1953 39.5078V43H29.9531V36.7891H31.0781L31.1777 37.9141H31.3125C31.3477 37.4961 31.5 37.1855 31.7695 36.9824C32.0391 36.7754 32.4336 36.6719 32.9531 36.6719ZM42.2812 40.3281C42.2812 40.8906 42.168 41.373 41.9414 41.7754C41.7148 42.1738 41.3867 42.4785 40.957 42.6895C40.5273 42.8965 40.0156 43 39.4219 43C38.8164 43 38.2988 42.8867 37.8691 42.6602C37.4434 42.4297 37.1191 42.0977 36.8965 41.6641C36.6738 41.2266 36.5625 40.7031 36.5625 40.0938H37.7344C37.7344 40.6797 37.8828 41.1348 38.1797 41.459C38.4805 41.7832 38.9043 41.9453 39.4512 41.9453C39.9824 41.9453 40.3906 41.8047 40.6758 41.5234C40.9648 41.2422 41.1094 40.8438 41.1094 40.3281V35.793H38.9297V34.6797H42.2812V40.3281ZM46.5469 43.1172C45.9766 43.1172 45.4863 42.9922 45.0762 42.7422C44.6699 42.4883 44.3594 42.1211 44.1445 41.6406C43.9336 41.1562 43.8281 40.5742 43.8281 39.8945C43.8281 39.2148 43.9336 38.6348 44.1445 38.1543C44.3594 37.6699 44.6699 37.3027 45.0762 37.0527C45.4863 36.7988 45.9766 36.6719 46.5469 36.6719C47.1172 36.6719 47.6055 36.7988 48.0117 37.0527C48.4219 37.3027 48.7324 37.6699 48.9434 38.1543C49.1582 38.6348 49.2656 39.2148 49.2656 39.8945C49.2656 40.5742 49.1582 41.1562 48.9434 41.6406C48.7324 42.1211 48.4219 42.4883 48.0117 42.7422C47.6055 42.9922 47.1172 43.1172 46.5469 43.1172ZM46.5469 42.0039C47.0039 42.0039 47.3555 41.8223 47.6016 41.459C47.8516 41.0918 47.9766 40.5703 47.9766 39.8945C47.9766 39.2188 47.8516 38.6992 47.6016 38.3359C47.3555 37.9688 47.0039 37.7852 46.5469 37.7852C46.0898 37.7852 45.7363 37.9688 45.4863 38.3359C45.2402 38.6992 45.1172 39.2188 45.1172 39.8945C45.1172 40.5703 45.2402 41.0918 45.4863 41.459C45.7363 41.8223 46.0898 42.0039 46.5469 42.0039ZM53.918 35.8047C53.7617 35.8047 53.6172 35.7656 53.4844 35.6875C53.3516 35.6094 53.2461 35.5039 53.168 35.3711C53.0898 35.2383 53.0508 35.0938 53.0508 34.9375C53.0508 34.7812 53.0898 34.6367 53.168 34.5039C53.2461 34.3711 53.3516 34.2656 53.4844 34.1875C53.6172 34.1094 53.7617 34.0703 53.918 34.0703C54.0742 34.0703 54.2188 34.1094 54.3516 34.1875C54.4844 34.2656 54.5898 34.3711 54.668 34.5039C54.7461 34.6367 54.7852 34.7812 54.7852 34.9375C54.7852 35.0938 54.7461 35.2383 54.668 35.3711C54.5898 35.5039 54.4844 35.6094 54.3516 35.6875C54.2188 35.7656 54.0742 35.8047 53.918 35.8047ZM54.6094 41.9805H56.5195V43H51V41.9805H53.3672V37.8203H51.3516V36.7891H54.6094V41.9805ZM61.0781 36.6719C61.7344 36.6719 62.2422 36.8711 62.6016 37.2695C62.9609 37.668 63.1406 38.2305 63.1406 38.957V43H61.8984V38.957C61.8984 38.5664 61.8008 38.2637 61.6055 38.0488C61.4102 37.834 61.1367 37.7266 60.7852 37.7266C59.8086 37.7266 59.3203 38.3203 59.3203 39.5078V43H58.0781V36.7891H59.2031L59.3027 37.9141H59.4375C59.4727 37.4961 59.625 37.1855 59.8945 36.9824C60.1641 36.7754 60.5586 36.6719 61.0781 36.6719Z" fill="white"/>
<path d="M35.5969 22.9398V21.8596C35.0558 21.792 34.6172 21.6711 34.279 21.4968C33.9408 21.3226 33.6477 21.0398 33.4018 20.6524C33.1558 20.2629 33.0123 19.7895 32.9734 19.2299L34.0597 19.025C34.1437 19.605 34.2913 20.0313 34.5045 20.3039C34.8078 20.6893 35.1726 20.9024 35.5969 20.9455V17.5062C35.1521 17.4222 34.6992 17.25 34.2339 16.9897C33.8896 16.797 33.6252 16.5306 33.4386 16.1903C33.2521 15.8501 33.1599 15.4648 33.1599 15.0323C33.1599 14.2637 33.4325 13.6406 33.9756 13.1651C34.3405 12.8433 34.8816 12.6486 35.5969 12.5768V12.0603H36.2344V12.5768C36.8615 12.6363 37.3616 12.8207 37.7285 13.1282C38.202 13.5196 38.4848 14.0587 38.5812 14.7433L37.4641 14.9113C37.4006 14.4871 37.2674 14.1612 37.0644 13.9357C36.8636 13.7103 36.5869 13.5606 36.2344 13.4889V16.6043C36.7775 16.7417 37.1382 16.8482 37.3145 16.9241C37.6507 17.0717 37.9253 17.252 38.1364 17.4631C38.3496 17.6763 38.5135 17.9284 38.6263 18.2195C38.7411 18.5126 38.7984 18.8282 38.7984 19.1684C38.7984 19.9186 38.5586 20.5417 38.0831 21.0418C37.6076 21.544 36.9907 21.8104 36.2344 21.8473V22.9398H35.5969L35.5969 22.9398ZM35.5969 13.4766C35.1767 13.5401 34.8447 13.7082 34.6028 13.9808C34.361 14.2534 34.2401 14.5752 34.2401 14.9482C34.2401 15.3151 34.3425 15.6246 34.5495 15.8726C34.7566 16.1206 35.105 16.3195 35.5969 16.467V13.4766H35.5969ZM36.2343 20.9455C36.6545 20.8943 37.0009 20.7118 37.2756 20.4003C37.5502 20.0887 37.6875 19.7014 37.6875 19.2402C37.6875 18.8487 37.5892 18.5331 37.3965 18.2953C37.2018 18.0576 36.8144 17.8444 36.2344 17.6558V20.9455H36.2343Z" fill="white"/>
<path fill-rule="evenodd" clip-rule="evenodd" d="M46.453 18.5C45.9494 23.8299 41.4617 28 36 28C31.2547 28 27.2447 24.8522 25.944 20.5308H28.0562C29.277 23.7286 32.3732 26 36 26C40.3561 26 43.9468 22.7232 44.4418 18.5H43L45.5 15.5L48 18.5H46.453ZM25.6902 15.5C26.6241 10.6576 30.8849 7 36 7C40.3775 7 44.1294 9.67881 45.7057 13.4866H43.4947C42.0616 10.816 39.2429 9 36 9C31.9945 9 28.636 11.7706 27.7366 15.5H29L26.5 18.5L24 15.5H25.6902Z" fill="white"/>
</svg>
