<svg width="72" height="56" viewBox="0 0 72 56" fill="none" xmlns="http://www.w3.org/2000/svg">
<path d="M26.2148 38.4766C26.8555 38.7773 27.3301 39.1133 27.6387 39.4844C27.9473 39.8516 28.1016 40.3086 28.1016 40.8555C28.1016 41.6289 27.8555 42.209 27.3633 42.5957C26.875 42.9824 26.1328 43.1758 25.1367 43.1758C24.1914 43.1758 23.3672 43.0234 22.6641 42.7188L22.8164 41.582C23.6836 41.9258 24.4883 42.0977 25.2305 42.0977C25.7734 42.0977 26.1777 41.998 26.4434 41.7988C26.7129 41.5957 26.8477 41.2891 26.8477 40.8789C26.8477 40.3828 26.5938 40.0195 26.0859 39.7891L24.6445 39.1328C24.0586 38.8672 23.6191 38.5508 23.3262 38.1836C23.0332 37.8164 22.8867 37.3711 22.8867 36.8477C22.8867 36.3672 22.9902 35.957 23.1973 35.6172C23.4043 35.2734 23.7051 35.0117 24.0996 34.832C24.4941 34.6523 24.9688 34.5625 25.5234 34.5625C26.0234 34.5625 26.4512 34.6406 26.8066 34.7969C27.166 34.9531 27.4375 35.1797 27.6211 35.4766C27.8086 35.7695 27.9023 36.125 27.9023 36.543H26.7539C26.7539 36.2539 26.6465 36.0312 26.4316 35.875C26.2168 35.7188 25.9141 35.6406 25.5234 35.6406C25.0859 35.6406 24.7461 35.7422 24.5039 35.9453C24.2617 36.1445 24.1406 36.4258 24.1406 36.7891C24.1406 37.0508 24.209 37.2676 24.3457 37.4395C24.4863 37.6074 24.7031 37.7617 24.9961 37.9023L26.2148 38.4766ZM35.2031 39.6484C35.2031 39.9336 35.1914 40.1992 35.168 40.4453H30.9727C31.082 40.9609 31.3281 41.3535 31.7109 41.623C32.0938 41.8926 32.5977 42.0273 33.2227 42.0273C33.7031 42.0273 34.2109 41.9727 34.7461 41.8633L34.8984 42.9531C34.3242 43.0625 33.7188 43.1172 33.082 43.1172C32.375 43.1172 31.7734 42.9922 31.2773 42.7422C30.7852 42.4922 30.4102 42.127 30.1523 41.6465C29.8945 41.1621 29.7656 40.5742 29.7656 39.8828C29.7656 39.2109 29.875 38.6348 30.0938 38.1543C30.3125 37.6738 30.6309 37.3066 31.0488 37.0527C31.4707 36.7988 31.9766 36.6719 32.5664 36.6719C33.4102 36.6719 34.0605 36.9277 34.5176 37.4395C34.9746 37.9512 35.2031 38.6875 35.2031 39.6484ZM34.0781 39.4961C34.0781 38.9414 33.9453 38.5137 33.6797 38.2129C33.418 37.9121 33.0508 37.7617 32.5781 37.7617C32.0977 37.7617 31.7148 37.9121 31.4297 38.2129C31.1445 38.5137 30.9766 38.9414 30.9258 39.4961H34.0781ZM39.9844 36.6719C40.6406 36.6719 41.1484 36.8711 41.5078 37.2695C41.8672 37.668 42.0469 38.2305 42.0469 38.957V43H40.8047V38.957C40.8047 38.5664 40.707 38.2637 40.5117 38.0488C40.3164 37.834 40.043 37.7266 39.6914 37.7266C38.7148 37.7266 38.2266 38.3203 38.2266 39.5078V43H36.9844V36.7891H38.1094L38.209 37.9141H38.3438C38.3789 37.4961 38.5312 37.1855 38.8008 36.9824C39.0703 36.7754 39.4648 36.6719 39.9844 36.6719ZM49.0781 34.2109V43L47.9648 43.0586L47.8594 42.0391H47.7188C47.6797 42.3906 47.5137 42.6582 47.2207 42.8418C46.9277 43.0254 46.543 43.1172 46.0664 43.1172C45.543 43.1172 45.0957 42.9961 44.7246 42.7539C44.3574 42.5078 44.0762 42.1484 43.8809 41.6758C43.6895 41.2031 43.5938 40.6289 43.5938 39.9531C43.5938 39.2617 43.6895 38.6699 43.8809 38.1777C44.0762 37.6855 44.3594 37.3125 44.7305 37.0586C45.1055 36.8008 45.5547 36.6719 46.0781 36.6719C46.5742 36.6719 46.957 36.7754 47.2266 36.9824C47.5 37.1855 47.6641 37.4961 47.7188 37.9141H47.8359V34.2109H49.0781ZM46.2656 42.0625C47.3125 42.0625 47.8359 41.7109 47.8359 41.0078V39.5078C47.8359 38.3203 47.3086 37.7266 46.2539 37.7266C45.7969 37.7266 45.4434 37.9199 45.1934 38.3066C44.9473 38.6934 44.8242 39.2422 44.8242 39.9531C44.8242 40.6484 44.9453 41.1738 45.1875 41.5293C45.4297 41.8848 45.7891 42.0625 46.2656 42.0625Z" fill="white"/>
<circle cx="34.9228" cy="20.2774" r="8.92284" stroke="white" stroke-width="2"/>
<g clip-path="url(#clip0_1_905)">
<path d="M46.164 18.2416L44.1712 15.8172L37.6257 21.1975L34.6361 17.5605L41.1815 12.1801L39.1884 9.75543L49.2218 8.61836L46.164 18.2416Z" fill="white"/>
</g>
<defs>
<clipPath id="clip0_1_905">
<rect width="12.5549" height="19.3667" fill="white" transform="matrix(-0.635 -0.772512 -0.772512 0.635 54.1428 12.6989)"/>
</clipPath>
</defs>
</svg>
