<svg width="24" height="24" viewBox="0 0 24 24" fill="none" xmlns="http://www.w3.org/2000/svg">
<path d="M20.8237 8.90998L20.4487 3.59248C20.4428 3.51494 20.4129 3.44117 20.3632 3.38138C20.3134 3.32158 20.2464 3.27872 20.1712 3.25873L12.0937 1.12498C12.0321 1.11003 11.9678 1.11003 11.9062 1.12498L3.82871 3.25873C3.75356 3.27872 3.68649 3.32158 3.63677 3.38138C3.58705 3.44117 3.55716 3.51494 3.55122 3.59248L3.17622 8.90998C3.08172 10.2962 3.2083 11.6885 3.55122 13.035C4.2405 15.7821 5.83005 18.2192 8.06621 19.9575L11.7712 22.7962C11.8368 22.8467 11.9172 22.8741 12 22.8741C12.0827 22.8741 12.1632 22.8467 12.2287 22.7962L15.9337 19.9575C18.1713 18.2223 19.7634 15.7879 20.4562 13.0425C20.7974 11.6932 20.9215 10.2983 20.8237 8.90998Z" fill="white"/>
<path d="M19.3276 9.01877L19.0276 4.77002C19.0217 4.6925 18.9918 4.61874 18.9421 4.55893C18.8924 4.49912 18.8253 4.45629 18.7501 4.43627L12.0939 2.68878C12.0328 2.66998 11.9675 2.66998 11.9064 2.68878L5.25012 4.43627C5.17497 4.45629 5.10792 4.49912 5.05819 4.55893C5.00847 4.61874 4.97858 4.6925 4.97262 4.77002L4.67262 9.01877C4.58554 10.2459 4.69568 11.479 4.99887 12.6713C5.60922 15.085 7.00984 17.2249 8.97762 18.75L11.7714 20.8913C11.837 20.9417 11.9174 20.9691 12.0001 20.9691C12.0829 20.9691 12.1633 20.9417 12.2289 20.8913L15.0226 18.75C16.9904 17.2249 18.3911 15.085 19.0014 12.6713C19.3046 11.479 19.4147 10.2459 19.3276 9.01877Z" fill="#F6271E"/>
<path d="M15.3822 15.0379C15.772 15.4277 16.3846 15.4092 16.7745 15.0193C17.1458 14.6481 17.1643 14.0354 16.7745 13.6456L13.5629 10.434L16.8302 7.16678C17.2014 6.7955 17.2014 6.20145 16.8302 5.83017C16.4589 5.45889 15.8648 5.45889 15.4936 5.83017L12.2263 9.09743L9.01473 5.88586C8.62489 5.49602 8.01228 5.51458 7.641 5.88586C7.25115 6.2757 7.23259 6.88832 7.62243 7.27816L10.834 10.4897L7.5853 13.7384C7.21403 14.1097 7.19546 14.7223 7.56674 15.0936C7.93802 15.4649 8.55063 15.4463 8.92191 15.075L12.1706 11.8263L15.3822 15.0379Z" fill="white"/>
</svg>
