<svg width="50" height="50" viewBox="0 0 50 50" fill="none" xmlns="http://www.w3.org/2000/svg">
<path d="M43.3829 18.5625L42.6017 7.48436C42.5893 7.32282 42.527 7.16913 42.4235 7.04456C42.3199 6.91998 42.1801 6.8307 42.0235 6.78905L25.1954 2.34373C25.067 2.31259 24.9331 2.31259 24.8048 2.34373L7.97666 6.78905C7.82009 6.8307 7.68036 6.91998 7.57678 7.04456C7.4732 7.16913 7.41091 7.32282 7.39854 7.48436L6.61729 18.5625C6.42041 21.4504 6.68412 24.3512 7.39854 27.1562C8.83455 32.8794 12.1461 37.9568 16.8048 41.5781L24.5235 47.4922C24.6602 47.5973 24.8277 47.6544 25.0001 47.6544C25.1725 47.6544 25.3401 47.5973 25.4767 47.4922L33.1954 41.5781C37.857 37.9632 41.1739 32.8915 42.6173 27.1719C43.3281 24.3609 43.5866 21.4548 43.3829 18.5625Z" fill="white"/>
<path d="M40.2656 18.789L39.6406 9.93748C39.6283 9.776 39.566 9.62233 39.4624 9.49772C39.3588 9.37311 39.2191 9.28389 39.0625 9.24217L25.1953 5.60158C25.068 5.56241 24.9319 5.56241 24.8047 5.60158L10.9375 9.24217C10.7809 9.28389 10.6412 9.37311 10.5376 9.49772C10.434 9.62233 10.3718 9.776 10.3594 9.93748L9.73436 18.789C9.55295 21.3455 9.78241 23.9146 10.414 26.3984C11.6856 31.4269 14.6036 35.8851 18.7031 39.0625L24.5234 43.5234C24.6601 43.6286 24.8276 43.6856 25 43.6856C25.1724 43.6856 25.34 43.6286 25.4766 43.5234L31.2969 39.0625C35.3964 35.8851 38.3144 31.4269 39.5859 26.3984C40.2176 23.9146 40.4471 21.3455 40.2656 18.789Z" fill="#74B64A"/>
<path d="M32.4376 17.492L24.3284 25.6007L20.868 22.1403C20.2119 21.4844 19.148 21.4844 18.4921 22.1403C17.836 22.7967 17.836 23.8603 18.4921 24.5165L23.1404 29.1648C23.4684 29.4928 23.8985 29.6568 24.3284 29.6568C24.7583 29.6568 25.1884 29.4928 25.5164 29.1648L34.8133 19.8681C35.4696 19.212 35.4696 18.1481 34.8135 17.4922C34.1576 16.8361 33.0937 16.8359 32.4376 17.492Z" fill="white"/>
</svg>
