<svg width="16" height="16" viewBox="0 0 16 16" fill="none" xmlns="http://www.w3.org/2000/svg">
<path d="M8 16C3.58875 16 0 12.4113 0 8C0 3.58875 3.58875 0 8 0C12.4113 0 16 3.58875 16 8C16 12.4113 12.4113 16 8 16ZM8 1.33344C4.32406 1.33344 1.33344 4.32406 1.33344 8C1.33344 11.6759 4.32406 14.6666 8 14.6666C11.6759 14.6666 14.6666 11.6759 14.6666 8C14.6666 4.32406 11.6759 1.33344 8 1.33344Z" fill="#74B64A"/>
<path d="M7.33314 10.6666C7.20165 10.6667 7.07309 10.6278 6.96377 10.5547L4.96377 9.22127C4.81666 9.12318 4.71454 8.97067 4.67987 8.79729C4.64521 8.62391 4.68084 8.44385 4.77893 8.29674C4.87701 8.14963 5.02953 8.04751 5.20291 8.01284C5.37629 7.97818 5.55634 8.01381 5.70346 8.1119L7.20501 9.1119L10.1547 5.57221C10.2679 5.43637 10.4304 5.35105 10.6064 5.33502C10.7825 5.31899 10.9578 5.37357 11.0936 5.48674C11.2294 5.59991 11.3148 5.76241 11.3308 5.93849C11.3468 6.11457 11.2922 6.28981 11.1791 6.42565L7.84564 10.4256C7.78317 10.501 7.70486 10.5617 7.61628 10.6033C7.52769 10.645 7.43102 10.6666 7.33314 10.6666Z" fill="#74B64A"/>
</svg>
